<svg width="400" height="400"  xmlns="http://www.w3.org/2000/svg" viewBox="80, 0, 400, 400">
 <g>
 <g (click)="hitHead()">
  <title>
   HP: {{health.Head}}
   Armor: {{armor.Head}}
   </title>

  <path id="head" d="m264.200891,99.086786c0,0 2.283106,-8.675802 2.009213,-8.675804c0.273892,0.000002 -10.685015,-7.305936 -10.228394,-6.849314c0.456621,0.456621 -0.456621,-30.593616 -0.730513,-30.593617c0.273892,0.000001 8.493072,-8.219179 8.21918,-8.21918c0.273892,0.000001 29.041023,0.000001 29.041023,0.000001c0,0 8.675802,6.849317 8.401908,6.849316c0.273893,0.000001 0.730514,31.50686 0.456621,31.506857c0.273893,0.000002 -8.858529,6.392698 -9.132422,6.392696c0.273893,0.000002 0.730514,9.132425 0.456621,9.132422c0.273893,0.000003 -28.493238,0.456624 -28.493238,0.456624z" fill-opacity="null" stroke-opacity="null" stroke-width="1.5" stroke="#f00" fill="#fff"
    [ngStyle]="{ fill: health.Head <= 0 ? 'black' : health.Head < 10 ? 'red' : health.Head < 15 ? 'yellow' : 'green'}"
    />

  <path  *ngIf="armor.Head>0" [ngStyle]="{ fill: armor.Head <= 2 ? 'gray' : armor.Head <= 4 ? '#33666C' : armor.Head < 8 ? 'purple' : 'gold'}"id="left-hand-armor"  id="head-armor" d="m255.957443,82.978718c0,0 -4.255319,-4.680851 -4.468098,-4.680851c0.212779,0 0.638311,-25.957445 0.425532,-25.957445c0.212779,0 7.446822,-10.212765 7.234042,-10.212765c0.212779,0 34.25533,-1.276596 34.042551,-1.276596c0.21278,0 10.000013,7.234042 9.787233,7.234042c0.21278,0 1.914907,28.085105 1.702128,28.085104c0.21278,0 -3.191476,6.382978 -3.404255,6.382978c0.21278,0 -2.340412,-7.234042 -2.340412,-7.234042c0,0 -1.702128,-19.999999 -1.914907,-19.999999c0.21278,0 -17.234028,0 -17.446807,0c0.21278,0 -15.106368,0.851064 -15.319148,0.851064c0.212779,0 -8.297858,26.808509 -8.297858,26.808509z" fill-opacity="null" stroke-opacity="null" stroke-width="1.5" stroke="#000" fill="#33666C"/>

<text x="270" y="70">{{health.Head}}</text>

</g>

<g (click)="hitLeftArm()">
  <title>
   HP: {{health.ArmL}}
   Armor: {{armor.ArmL}}
  </title>

  <path id="left-hand" d="m233.607283,114.155283c0,0 -60.730611,56.164399 -61.0045,56.164395c0.27389,0.000005 1.187132,9.589048 0.913242,9.589044c0.27389,0.000005 -20.274061,0.913247 -20.54795,0.913242c0.273889,0.000005 0.273889,7.305943 0,7.305938c0.273889,0.000005 8.949691,-0.456616 8.675801,-0.456621c0.273889,0.000005 -6.575428,7.305943 -6.849317,7.305938c0.273889,0.000005 -0.639353,12.328776 -0.913242,12.32877c0.273889,0.000006 5.753343,8.219186 5.479453,8.21918c0.273889,0.000006 11.689418,-0.913236 11.415528,-0.913242c0.27389,0.000006 17.625493,-18.264839 17.351603,-18.264845c0.27389,0.000005 8.949692,-1.826479 8.675801,-1.826484c0.27389,0.000005 36.34696,-36.529685 36.34696,-36.529685c0,0 0.456621,-43.835629 0.456621,-43.835629z" fill-opacity="null" stroke-opacity="null" stroke-width="1.5" stroke="#000" fill="#fff" [ngStyle]="{ fill:health.ArmL <= 0 ? 'black' : health.ArmL < 10 ? 'red' : health.ArmL < 20 ? 'yellow' : 'green'}"/>

  <path  *ngIf="armor.ArmL>0" [ngStyle]="{ fill: armor.ArmL <= 2 ? 'gray' : armor.ArmL <= 4 ? '#33666C' : armor.ArmL < 8 ? 'purple' : 'gold'}"id="left-hand-armor" d="m211.276595,180.42552c0,0 -5.106383,-8.085106 -5.319162,-8.085106c0.212779,0 -8.297858,4.255319 -8.510638,4.255319c0.212779,0 -7.446795,-3.829787 -7.659574,-3.829787c0.212779,0 0.638311,-7.659574 0.638311,-8.085105c0,-0.425532 3.404255,-6.382978 3.191476,-6.382979c0.212779,0 -0.638284,-6.382978 -0.851064,-6.382978c0.212779,0 10.425545,-8.510637 10.425545,-8.510637c0,0 8.085106,4.680851 7.872326,4.68085c0.212779,0 12.127672,-2.127659 11.914893,-2.127659c0.212779,0 -1.91488,9.361702 -2.127659,9.361701c0.212779,0 -2.765944,7.234042 -2.978723,7.234042c0.212779,0 3.191503,7.659574 2.978723,7.659574c0.212779,0 -9.574454,10.212766 -9.574454,10.212766z" fill-opacity="null" stroke-opacity="null" stroke-width="1.5" stroke="#000" fill="#33666C"/>

  <text x="200" y="165">{{health.ArmL}}</text> 

</g>

<g (click)="hitRightArm()">
  <title>
   HP: {{health.ArmR}}
   Armor: {{armor.ArmR}}
  </title>

  <path stroke="#000" id="right-hand" d="m326.301377,113.698659c0,0 59.286397,56.1644 59.553774,56.1644c-0.267377,0 -1.158899,9.58905 -0.891532,9.58904c-0.267367,0.00001 19.79194,0.91325 20.059316,0.91324c-0.267377,0.00001 -0.267377,7.30595 0,7.30594c-0.267377,0.00001 -8.73687,-0.45661 -8.469494,-0.45662c-0.267377,0.00001 6.419062,7.30594 6.686439,7.30594c-0.267377,0 0.624146,12.32877 0.891523,12.32877c-0.267377,0 -5.616522,8.21918 -5.349145,8.21918c-0.267377,0 -11.411438,-0.91324 -11.144061,-0.91324c-0.267377,0 -17.206344,-18.26484 -16.938968,-18.26485c-0.267377,0.00001 -8.736861,-1.82648 -8.469484,-1.82648c-0.267377,0 -35.482606,-36.52969 -35.482606,-36.52969c0,0 -0.445761,-43.83563 -0.445761,-43.83563z" fill-opacity="null" stroke-opacity="null" stroke-width="1.5" fill="#fff" [ngStyle]="{ fill:  health.ArmR < 10 ? 'red' : health.ArmR < 20 ? 'yellow' : 'green' }"/>

  <path  *ngIf="armor.ArmR>0" [ngStyle]="{ fill: armor.ArmR <= 2 ? 'gray' : armor.ArmR <= 4 ? '#33666C' : armor.ArmR < 8 ? 'purple' : 'gold'}" id="right-arm-armor" d="m355.531905,141.702118l-14.255332,2.553191l-2.127659,14.468084l4.680851,4.680851l-4.255319,6.382978l4.255319,5.531915l8.510638,-5.531915l13.61702,1.276596l5.531915,-14.468084l-15.957432,-14.893616z" fill-opacity="null" stroke-opacity="null" stroke-width="1.5" stroke="#000" fill="#33666C"/>

   <text x="350" y="165">{{health.ArmR}}</text> 

</g>

<g (click)="hitLeftLeg()">
  <title>
   HP: {{health.LegL}}
   Armor: {{armor.LegL}}
  </title>

  <path id="left-leg" d="m245.02281,205.47951l-35.89034,120.09135l-21.46119,14.15525l0.45662,8.21918l47.03198,0l-0.91325,-18.72146l40.18266,-103.19638l-29.40648,-20.54794z" fill-opacity="null" stroke-opacity="null" stroke-width="1.5" stroke="#000" fill="#fff" [ngStyle]="{ fill: health.LegL <= 0 ? 'black' : health.LegL < 10 ? 'red' : health.LegL < 20 ? 'yellow' : 'green'}"/>

  <path  *ngIf="armor.LegL>0" [ngStyle]="{ fill: armor.LegL <= 2 ? 'gray' : armor.LegL <= 4 ? '#33666C' : armor.LegL < 8 ? 'purple' : 'gold'}" id="left-leg-armor" d="m238.510636,228.085092c0,0.425532 1.702128,27.234041 1.489348,27.23404c0.212779,0.000001 19.361714,8.93617 19.148935,8.93617c0.212779,0.000001 -24.46807,63.829784 -24.46807,63.829784c0,0 -25.531913,-2.127659 -25.744693,-2.12766c0.212779,0.000001 29.57448,-98.297865 29.57448,-97.872333z" fill-opacity="null" stroke-opacity="null" stroke-width="1.5" stroke="#000" fill="#33666C"/>

  <text x="230" y="280">{{health.LegL}}</text> 

</g>

<g (click)="hitRightLeg()">
  <title>
   HP: {{health.LegR}}
   Armor: {{armor.LegR}}
  </title>

  <path  stroke="#000" id="right-leg" d="m323.613804,204.566268l37.401516,120.09135l22.364821,14.15525l-0.475846,8.21918l-49.012279,0l0.951703,-18.72146l-41.874566,-103.19638l30.644651,-20.54794z" fill-opacity="null" stroke-opacity="null" stroke-width="1.5" fill="#fff" [ngStyle]="{ fill: health.LegR <= 0 ? 'black' : health.LegR < 10 ? 'red' : health.LegR < 20 ? 'yellow' : 'green' }"/>

  <path *ngIf="armor.LegR>0" [ngStyle]="{ fill: armor.LegR <= 2 ? 'gray' : armor.LegR <= 4 ? '#33666C' : armor.LegR < 8 ? 'purple' : 'gold'}" id="torso-armor"  id="right-leg-armor" d="m334.25531,238.29786l-6.59576,24.68085l-16.59574,7.65957l24.68085,57.4468l25.10638,-2.55319l-26.59573,-87.23403z" fill-opacity="null" stroke-opacity="null" stroke-width="1.5" stroke="#000" fill="#33666C"/>

  <text x="320" y="280">{{health.LegR}}</text> 

</g>

<g (click)="hitTorso()">
  <title>
   HP: {{health.Torso}}
   Armor: {{armor.Torso}}
  </title>

  <path  id="torso" d="m264.71047,99.22766l-31.12008,15.05789l0,44.40148l11.1969,46.71808l30.11579,20.07719l17.76059,-0.3861l31.27408,-20.84939l2.7027,-45.55978l-0.7722,-45.94588l-33.20458,-13.89959l-27.9532,0.3861z" fill-opacity="null" stroke-opacity="null" stroke-width="1.5" stroke="#000" fill="#fff" [ngStyle]="{ fill: health.Torso <= 0 ? 'black' : health.Torso < 20 ? 'red' : health.Torso < 50 ? 'yellow' : 'green'}" />

  <path *ngIf="armor.Torso>0" [ngStyle]="{ fill: armor.Torso <= 2 ? 'gray' : armor.Torso <= 4 ? '#33666C' : armor.Torso < 8 ? 'purple' : 'gold'}" id="torso-armor" d="m244.893614,109.361695c0,0 1.276596,20.851062 1.063816,20.851062c0.212779,0 -12.553177,6.382979 -12.765957,6.382978c0.212779,0 1.063843,21.702127 0.851064,21.702126c0.212779,0 10.851077,48.085104 10.638297,48.085103c0.212779,0 29.148948,18.723403 28.936168,18.723403c0.21278,0 19.361714,-0.425531 19.361714,-0.425531c0,0 30.638296,-19.148935 30.425516,-19.148935c0.21278,0 4.042567,-75.319144 3.617035,-75.319144c-0.425532,0 -19.999999,-3.404255 -20.212778,-3.404255c0.21278,0 6.170226,-18.723403 5.957446,-18.723403c0.21278,0 -9.148922,-4.680851 -9.361701,-4.680851c0.21278,0 -9.999986,18.723403 -10.212765,18.723403c0.21278,0 -13.404241,-2.127659 -13.61702,-2.127659c0.21278,0 -9.999986,3.404255 -10.212765,3.404255c0.21278,0 -14.680837,-18.723403 -14.893616,-18.723403c0.212779,0 -9.574454,4.680851 -9.574454,4.680851z" stroke-width="1.5" stroke="#000"/>

  <text x="270" y="170">{{health.Torso}}</text> 

</g>

<g>
  <text  *ngIf="armor.Head" font-weight="bold" fill="black" x="320" y="70">{{armor.Head}}</text>
  <text  *ngIf="armor.ArmL" font-weight="bold" fill="black" x="160" y="150">{{armor.ArmL}}</text> 
  <text  *ngIf="armor.Torso" font-weight="bold" fill="black" x="270" y="150">{{armor.Torso}}</text> 
  <text  *ngIf="armor.ArmR" font-weight="bold" fill="black" x="390" y="150">{{armor.ArmR}}</text> 
  <text  *ngIf="armor.LegL" font-weight="bold" fill="black" x="200" y="270">{{armor.LegL}}</text> 
  <text  *ngIf="armor.LegR" font-weight="bold" fill="black" x="360" y="270">{{armor.LegR}}</text> 
</g>

 </g>
</svg>